<?xml version="1.0" encoding="UTF-8" standalone="no"?>
<!DOCTYPE svg PUBLIC "-//W3C//DTD SVG 1.1//EN" "http://www.w3.org/Graphics/SVG/1.1/DTD/svg11.dtd">
<svg width="100%" height="100%" viewBox="0 0 1080 1080" version="1.1" xmlns="http://www.w3.org/2000/svg" xmlns:xlink="http://www.w3.org/1999/xlink" xml:space="preserve" xmlns:serif="http://www.serif.com/" style="fill-rule:evenodd;clip-rule:evenodd;stroke-linejoin:round;stroke-miterlimit:2;">
    <g transform="matrix(1,0,0,1,-3540,0)">
        <rect id="Logomark-Favicon" x="3540" y="0" width="1080" height="1080" style="fill:none;"/>
        <g id="Logomark-Favicon1" serif:id="Logomark-Favicon">
            <g transform="matrix(3.18654,0,0,3.18654,-5184.99,-922.336)">
                <g transform="matrix(1,0,0,1,26.0116,-44.9929)">
                    <path d="M2810.91,576.615C2827.14,594.182 2844.35,599.188 2844.35,599.188C2844.35,599.188 2825.05,595.855 2806.08,578.339C2796.82,569.791 2787.8,557.882 2780.96,541.526C2773.14,522.112 2771.85,502.375 2774.49,484.658C2776.34,472.291 2780.15,460.928 2784.85,451.379C2788.78,443.382 2793.45,436.689 2798.05,431.582C2809.91,418.996 2822.58,408.534 2839.03,402.138C2852.5,396.902 2868.44,394.349 2888.42,395.406C2904.1,396.357 2917.92,401.887 2929.17,408.82C2931.22,410.08 2933.18,411.382 2935.04,412.703C2935.4,412.813 2935.72,413.033 2935.95,413.354C2951.47,424.552 2960.44,436.851 2960.44,436.851C2960.44,436.851 2950.67,425.963 2934.74,416.538C2931.05,419.611 2915.21,433.455 2899.18,457.055C2898.98,457.349 2898.78,457.645 2898.58,457.943C2902.47,459.213 2906.39,460.339 2910.27,461.325C2932.09,466.87 2951.77,468.209 2951.77,468.209C2951.77,468.209 2941.01,469.581 2926.2,469.496C2918.33,469.451 2909.43,469.003 2900.39,467.685C2897.97,467.331 2895.55,466.917 2893.14,466.432C2889.57,472.291 2886.04,478.637 2882.67,485.455C2880.05,490.751 2877.46,496.301 2875.1,502.171C2885.07,506.037 2892.86,508.263 2895.92,509.178C2892.66,508.88 2884.28,508.355 2873.41,506.432C2867.17,521.793 2863,535.59 2860.12,547.543C2861.99,548.161 2863.78,548.709 2865.5,549.191C2881.32,553.634 2890.09,552.797 2890.09,552.797C2890.09,552.797 2881.4,555.509 2864.62,553.932C2862.77,553.759 2860.83,553.533 2858.81,553.243C2852.49,582.203 2854.3,598.902 2854.3,598.902C2854.45,599.879 2853.79,600.802 2852.81,600.96C2851.83,601.118 2850.91,600.452 2850.75,599.474C2850.75,599.474 2847.19,582.351 2851.67,552.021C2848.56,551.402 2845.26,550.637 2841.77,549.698C2837.14,548.449 2832.25,546.82 2827.01,544.897C2822.09,542.919 2817.55,540.75 2813.46,538.317C2812.9,537.982 2812.34,537.642 2811.79,537.299C2811.66,538.923 2811.55,540.529 2811.45,542.111C2810.28,560.576 2811.02,575.555 2811.02,575.555C2811.06,575.924 2811.02,576.283 2810.91,576.615ZM2784.81,511.663C2785.05,520.403 2786.43,529.416 2789.37,538.474C2793.31,551.239 2798.88,561.402 2804.98,569.498C2803.93,562.067 2802.44,549.213 2802.26,535.113C2802.24,533.558 2802.23,531.99 2802.25,530.413C2799.83,528.415 2797.61,526.377 2795.57,524.351C2791.19,520.013 2787.65,515.678 2784.81,511.663ZM2822.95,487.167C2822.59,488.101 2822.23,489.04 2821.89,489.983C2819.54,496.374 2817.44,502.914 2815.93,509.571C2814.81,514.163 2813.94,518.95 2813.26,523.758C2815.28,525.293 2817.43,526.811 2819.71,528.301C2823.28,530.638 2827.11,533.001 2831.38,535.103C2836.07,537.588 2840.48,539.682 2844.66,541.524C2847.52,542.786 2850.24,543.915 2852.84,544.92C2853.92,538.909 2855.32,532.457 2857.14,525.588C2858.9,518.914 2861.09,511.87 2863.68,504.445C2863.16,504.326 2862.64,504.202 2862.12,504.076C2855.74,502.533 2849.02,500.533 2842.24,497.797C2837.96,496.065 2833.75,493.941 2829.58,491.644C2827.25,490.22 2825.04,488.721 2822.95,487.167ZM2797.23,457.699C2796.48,459.175 2795.75,460.698 2795.04,462.264C2791.72,469.624 2788.88,477.92 2787.05,486.869C2786.78,488.228 2786.52,489.602 2786.29,490.988C2788.14,495.129 2793.15,504.833 2803.11,514.892C2803.36,512.309 2803.68,509.749 2804.06,507.236C2805.29,499.916 2807.01,492.633 2809.33,485.604C2810.21,482.955 2811.16,480.339 2812.18,477.768C2810.3,475.841 2808.57,473.896 2806.98,471.964C2802.79,466.87 2799.59,461.902 2797.23,457.699ZM2848.63,443.277C2841.61,450.796 2835.4,460.518 2830.02,471.256C2829.24,472.808 2828.48,474.381 2827.73,475.973C2830.18,478.002 2832.83,479.953 2835.7,481.761C2839.31,484.263 2843.02,486.486 2846.71,488.603C2852.73,492.056 2858.63,495.114 2864.32,497.669C2864.86,497.914 2865.41,498.156 2865.95,498.394C2868.4,492.262 2871.03,486.433 2873.89,480.978C2877.06,474.959 2880.43,469.356 2883.89,464.16C2882.52,463.757 2881.16,463.324 2879.83,462.86C2875.12,461.229 2870.72,459.096 2866.65,456.734C2859.48,452.35 2853.53,447.764 2848.63,443.277ZM2830.37,420.347C2822.14,426.064 2815.07,433.013 2808.36,440.844C2806.97,442.398 2805.58,444.135 2804.22,446.035C2806.26,450.139 2810.14,457.041 2816.2,464.342C2816.65,464.88 2817.11,465.42 2817.58,465.963C2817.73,465.666 2817.89,465.369 2818.05,465.073C2824.35,453.217 2832.2,442.934 2840.64,435.05C2835.71,429.339 2832.44,424.179 2830.37,420.347ZM2907.86,405.391C2907.56,405.697 2907.18,405.932 2906.75,406.059C2906.75,406.059 2894.3,410.454 2878.5,420.057C2871.82,424.115 2864.57,429.101 2857.42,435.124C2861.68,438.938 2866.77,442.844 2872.87,446.569C2876.07,448.619 2879.58,450.376 2883.24,452.016C2885.57,453.058 2887.94,454.076 2890.37,455.018C2891.08,454.063 2891.8,453.126 2892.52,452.206C2909.03,431.025 2925.28,418.642 2931.16,414.509C2929.87,413.804 2928.54,413.113 2927.17,412.441C2921.31,409.556 2914.83,407.045 2907.86,405.391ZM2897.17,403.625C2894.28,403.357 2891.32,403.255 2888.3,403.346C2869.95,403.762 2855.59,407.239 2843.55,412.794C2842.43,413.309 2841.34,413.843 2840.26,414.395C2842.09,417.618 2845.13,422.294 2849.85,427.571C2858.3,421.506 2866.78,416.623 2874.56,412.838C2883.61,408.428 2891.6,405.457 2897.17,403.625Z" style="fill:rgb(43,105,179);"/>
                </g>
                <g transform="matrix(1,0,0,1,1996.01,-44.9929)">
                    <path d="M886.49,602.479L899.759,594.94C899.759,594.94 936.071,597.854 957.21,579.137C957.21,579.137 958.928,559.586 948.358,552.431C948.358,552.431 955.122,565.359 953.22,576.985C953.22,576.985 934.688,580.015 930.954,562.329C927.219,544.642 931.376,532.076 931.376,532.076C931.376,532.076 951.106,534.922 958.223,546.971C965.34,559.02 962.451,575.848 962.451,575.848C962.451,575.848 983.874,564.405 995.545,535.339C995.545,535.339 994.114,515.563 981.562,508.365C981.562,508.365 991.724,522.857 990.441,532.655C990.441,532.655 981.342,536.179 973.525,530.233C965.708,524.288 960.974,509.364 961.744,493.24C961.744,493.24 985.966,493.961 993.233,503.87C1000.5,513.779 999.949,521.986 999.949,521.986C999.949,521.986 1005.83,510.274 1005.48,492.899C1005.14,475.524 996.788,447.285 996.788,447.285C996.788,447.285 1009.74,467.455 1009.91,480.314C1009.91,480.314 1015.55,469.159 1025.85,463.61C1036.16,458.061 1057.91,464.579 1062.58,468.278C1062.58,468.278 1055.01,482.464 1041.62,490.653C1028.23,498.842 1019.51,491.745 1017.49,489.744C1017.49,489.744 1022.51,476.293 1035.54,472.066C1035.54,472.066 1023.59,472.479 1017.51,481.654C1011.44,490.829 1010.52,523.331 1010.52,523.331C1010.52,523.331 1015.11,517.734 1025.02,515.716C1034.92,513.697 1047.31,519.844 1052.36,523.606C1057.4,527.368 1060.52,529.937 1060.52,529.937C1060.52,529.937 1049.69,539.57 1041.25,544.25C1032.81,548.929 1024.01,549.021 1018.04,543.791C1012.08,538.561 1010.97,536.547 1010.97,536.547C1010.97,536.547 1021.26,525.367 1031.26,526.823C1031.26,526.823 1021.92,523.439 1013.13,530.861C1004.35,538.283 1003.77,544.663 1000.91,550.168C998.044,555.673 991.438,565.785 988.648,567.693C985.859,569.602 1001.42,561.161 1012.06,566.666C1022.71,572.171 1031,582.006 1033.94,588.685C1033.94,588.685 1021.53,599.181 1003.99,597.493C986.446,595.805 984.391,580.024 984.391,580.024C984.391,580.024 990.704,576.208 1009.86,578.336C1009.86,578.336 992.759,570.277 982.116,575.848C982.116,575.848 959.986,593.841 942.783,599.188C925.58,604.535 906.464,606.731 886.49,602.479Z" style="fill:rgb(70,166,72);"/>
                </g>
            </g>
        </g>
    </g>
</svg>
