<?xml version="1.0" encoding="UTF-8" standalone="no"?>
<!DOCTYPE svg PUBLIC "-//W3C//DTD SVG 1.1//EN" "http://www.w3.org/Graphics/SVG/1.1/DTD/svg11.dtd">
<svg width="100%" height="100%" viewBox="0 0 1080 1080" version="1.1" xmlns="http://www.w3.org/2000/svg" xmlns:xlink="http://www.w3.org/1999/xlink" xml:space="preserve" xmlns:serif="http://www.serif.com/" style="fill-rule:evenodd;clip-rule:evenodd;stroke-linejoin:round;stroke-miterlimit:2;">
    <rect id="Master-Logo" x="0" y="0" width="1080" height="1080" style="fill:none;"/>
    <g id="Master-Logo1" serif:id="Master-Logo">
        <g transform="matrix(2.09741,0,0,2.09741,-5581.25,-548.812)">
            <g transform="matrix(1,0,0,1,26.0116,-44.9929)">
                <path d="M2810.91,576.615C2827.14,594.182 2844.35,599.188 2844.35,599.188C2844.35,599.188 2825.05,595.855 2806.08,578.339C2796.82,569.791 2787.8,557.882 2780.96,541.526C2773.14,522.112 2771.85,502.375 2774.49,484.658C2776.34,472.291 2780.15,460.928 2784.85,451.379C2788.78,443.382 2793.45,436.689 2798.05,431.582C2809.91,418.996 2822.58,408.534 2839.03,402.138C2852.5,396.902 2868.44,394.349 2888.42,395.406C2904.1,396.357 2917.92,401.887 2929.17,408.82C2931.22,410.08 2933.18,411.382 2935.04,412.703C2935.4,412.813 2935.72,413.033 2935.95,413.354C2951.47,424.552 2960.44,436.851 2960.44,436.851C2960.44,436.851 2950.67,425.963 2934.74,416.538C2931.05,419.611 2915.21,433.455 2899.18,457.055C2898.98,457.349 2898.78,457.645 2898.58,457.943C2902.47,459.213 2906.39,460.339 2910.27,461.325C2932.09,466.87 2951.77,468.209 2951.77,468.209C2951.77,468.209 2941.01,469.581 2926.2,469.496C2918.33,469.451 2909.43,469.003 2900.39,467.685C2897.97,467.331 2895.55,466.917 2893.14,466.432C2889.57,472.291 2886.04,478.637 2882.67,485.455C2880.05,490.751 2877.46,496.301 2875.1,502.171C2885.07,506.037 2892.86,508.263 2895.92,509.178C2892.66,508.88 2884.28,508.355 2873.41,506.432C2867.17,521.793 2863,535.59 2860.12,547.543C2861.99,548.161 2863.78,548.709 2865.5,549.191C2881.32,553.634 2890.09,552.797 2890.09,552.797C2890.09,552.797 2881.4,555.509 2864.62,553.932C2862.77,553.759 2860.83,553.533 2858.81,553.243C2852.49,582.203 2854.3,598.902 2854.3,598.902C2854.45,599.879 2853.79,600.802 2852.81,600.96C2851.83,601.118 2850.91,600.452 2850.75,599.474C2850.75,599.474 2847.19,582.351 2851.67,552.021C2848.56,551.402 2845.26,550.637 2841.77,549.698C2837.14,548.449 2832.25,546.82 2827.01,544.897C2822.09,542.919 2817.55,540.75 2813.46,538.317C2812.9,537.982 2812.34,537.642 2811.79,537.299C2811.66,538.923 2811.55,540.529 2811.45,542.111C2810.28,560.576 2811.02,575.555 2811.02,575.555C2811.06,575.924 2811.02,576.283 2810.91,576.615ZM2784.81,511.663C2785.05,520.403 2786.43,529.416 2789.37,538.474C2793.31,551.239 2798.88,561.402 2804.98,569.498C2803.93,562.067 2802.44,549.213 2802.26,535.113C2802.24,533.558 2802.23,531.99 2802.25,530.413C2799.83,528.415 2797.61,526.377 2795.57,524.351C2791.19,520.013 2787.65,515.678 2784.81,511.663ZM2822.95,487.167C2822.59,488.101 2822.23,489.04 2821.89,489.983C2819.54,496.374 2817.44,502.914 2815.93,509.571C2814.81,514.163 2813.94,518.95 2813.26,523.758C2815.28,525.293 2817.43,526.811 2819.71,528.301C2823.28,530.638 2827.11,533.001 2831.38,535.103C2836.07,537.588 2840.48,539.682 2844.66,541.524C2847.52,542.786 2850.24,543.915 2852.84,544.92C2853.92,538.909 2855.32,532.457 2857.14,525.588C2858.9,518.914 2861.09,511.87 2863.68,504.445C2863.16,504.326 2862.64,504.202 2862.12,504.076C2855.74,502.533 2849.02,500.533 2842.24,497.797C2837.96,496.065 2833.75,493.941 2829.58,491.644C2827.25,490.22 2825.04,488.721 2822.95,487.167ZM2797.23,457.699C2796.48,459.175 2795.75,460.698 2795.04,462.264C2791.72,469.624 2788.88,477.92 2787.05,486.869C2786.78,488.228 2786.52,489.602 2786.29,490.988C2788.14,495.129 2793.15,504.833 2803.11,514.892C2803.36,512.309 2803.68,509.749 2804.06,507.236C2805.29,499.916 2807.01,492.633 2809.33,485.604C2810.21,482.955 2811.16,480.339 2812.18,477.768C2810.3,475.841 2808.57,473.896 2806.98,471.964C2802.79,466.87 2799.59,461.902 2797.23,457.699ZM2848.63,443.277C2841.61,450.796 2835.4,460.518 2830.02,471.256C2829.24,472.808 2828.48,474.381 2827.73,475.973C2830.18,478.002 2832.83,479.953 2835.7,481.761C2839.31,484.263 2843.02,486.486 2846.71,488.603C2852.73,492.056 2858.63,495.114 2864.32,497.669C2864.86,497.914 2865.41,498.156 2865.95,498.394C2868.4,492.262 2871.03,486.433 2873.89,480.978C2877.06,474.959 2880.43,469.356 2883.89,464.16C2882.52,463.757 2881.16,463.324 2879.83,462.86C2875.12,461.229 2870.72,459.096 2866.65,456.734C2859.48,452.35 2853.53,447.764 2848.63,443.277ZM2830.37,420.347C2822.14,426.064 2815.07,433.013 2808.36,440.844C2806.97,442.398 2805.58,444.135 2804.22,446.035C2806.26,450.139 2810.14,457.041 2816.2,464.342C2816.65,464.88 2817.11,465.42 2817.58,465.963C2817.73,465.666 2817.89,465.369 2818.05,465.073C2824.35,453.217 2832.2,442.934 2840.64,435.05C2835.71,429.339 2832.44,424.179 2830.37,420.347ZM2907.86,405.391C2907.56,405.697 2907.18,405.932 2906.75,406.059C2906.75,406.059 2894.3,410.454 2878.5,420.057C2871.82,424.115 2864.57,429.101 2857.42,435.124C2861.68,438.938 2866.77,442.844 2872.87,446.569C2876.07,448.619 2879.58,450.376 2883.24,452.016C2885.57,453.058 2887.94,454.076 2890.37,455.018C2891.08,454.063 2891.8,453.126 2892.52,452.206C2909.03,431.025 2925.28,418.642 2931.16,414.509C2929.87,413.804 2928.54,413.113 2927.17,412.441C2921.31,409.556 2914.83,407.045 2907.86,405.391ZM2897.17,403.625C2894.28,403.357 2891.32,403.255 2888.3,403.346C2869.95,403.762 2855.59,407.239 2843.55,412.794C2842.43,413.309 2841.34,413.843 2840.26,414.395C2842.09,417.618 2845.13,422.294 2849.85,427.571C2858.3,421.506 2866.78,416.623 2874.56,412.838C2883.61,408.428 2891.6,405.457 2897.17,403.625Z" style="fill:rgb(43,105,179);"/>
            </g>
            <g transform="matrix(1,0,0,1,1996.01,-44.9929)">
                <path d="M886.49,602.479L899.759,594.94C899.759,594.94 936.071,597.854 957.21,579.137C957.21,579.137 958.928,559.586 948.358,552.431C948.358,552.431 955.122,565.359 953.22,576.985C953.22,576.985 934.688,580.015 930.954,562.329C927.219,544.642 931.376,532.076 931.376,532.076C931.376,532.076 951.106,534.922 958.223,546.971C965.34,559.02 962.451,575.848 962.451,575.848C962.451,575.848 983.874,564.405 995.545,535.339C995.545,535.339 994.114,515.563 981.562,508.365C981.562,508.365 991.724,522.857 990.441,532.655C990.441,532.655 981.342,536.179 973.525,530.233C965.708,524.288 960.974,509.364 961.744,493.24C961.744,493.24 985.966,493.961 993.233,503.87C1000.5,513.779 999.949,521.986 999.949,521.986C999.949,521.986 1005.83,510.274 1005.48,492.899C1005.14,475.524 996.788,447.285 996.788,447.285C996.788,447.285 1009.74,467.455 1009.91,480.314C1009.91,480.314 1015.55,469.159 1025.85,463.61C1036.16,458.061 1057.91,464.579 1062.58,468.278C1062.58,468.278 1055.01,482.464 1041.62,490.653C1028.23,498.842 1019.51,491.745 1017.49,489.744C1017.49,489.744 1022.51,476.293 1035.54,472.066C1035.54,472.066 1023.59,472.479 1017.51,481.654C1011.44,490.829 1010.52,523.331 1010.52,523.331C1010.52,523.331 1015.11,517.734 1025.02,515.716C1034.92,513.697 1047.31,519.844 1052.36,523.606C1057.4,527.368 1060.52,529.937 1060.52,529.937C1060.52,529.937 1049.69,539.57 1041.25,544.25C1032.81,548.929 1024.01,549.021 1018.04,543.791C1012.08,538.561 1010.97,536.547 1010.97,536.547C1010.97,536.547 1021.26,525.367 1031.26,526.823C1031.26,526.823 1021.92,523.439 1013.13,530.861C1004.35,538.283 1003.77,544.663 1000.91,550.168C998.044,555.673 991.438,565.785 988.648,567.693C985.859,569.602 1001.42,561.161 1012.06,566.666C1022.71,572.171 1031,582.006 1033.94,588.685C1033.94,588.685 1021.53,599.181 1003.99,597.493C986.446,595.805 984.391,580.024 984.391,580.024C984.391,580.024 990.704,576.208 1009.86,578.336C1009.86,578.336 992.759,570.277 982.116,575.848C982.116,575.848 959.986,593.841 942.783,599.188C925.58,604.535 906.464,606.731 886.49,602.479Z" style="fill:rgb(70,166,72);"/>
            </g>
        </g>
        <g transform="matrix(1,0,0,1,21.9083,-6.96162)">
            <path d="M347.631,793.146C344.729,798.2 342.502,803.354 340.951,808.608C339.4,813.862 338.624,818.891 338.624,823.695C338.624,828.499 339.7,832.577 341.852,835.93C344.004,839.283 347.081,840.959 351.084,840.959C356.689,840.959 361.943,837.881 366.847,831.727C371.751,825.572 375.529,818.116 378.181,809.359C380.833,800.602 382.159,792.495 382.159,785.04C382.159,777.584 381.859,771.454 381.258,766.65C383.66,766.45 385.161,766.35 385.762,766.35C394.268,766.35 398.522,770.703 398.522,779.41C398.522,781.312 397.321,789.043 394.919,802.603C392.517,816.164 391.316,827.023 391.316,835.179C391.316,843.336 392.867,850.567 395.97,856.872C389.665,855.571 385.086,852.793 382.234,848.54C379.382,844.287 377.955,838.157 377.955,830.15C377.955,828.749 378.156,826.047 378.556,822.044C375.854,831.551 371.1,839.208 364.295,845.012C357.489,850.817 350.809,853.719 344.254,853.719C337.699,853.719 332.419,851.242 328.416,846.288C324.413,841.334 322.411,834.479 322.411,825.722C322.411,816.965 324.038,808.408 327.29,800.051C330.543,791.695 335.447,784.464 342.002,778.359C348.557,772.254 355.888,769.202 363.994,769.202C367.497,769.202 371.35,769.903 375.554,771.304C369.649,772.805 364.245,775.557 359.341,779.56C354.437,783.563 350.534,788.092 347.631,793.146ZM211.473,737.227C211.473,741.73 210.498,751.088 208.546,765.299C206.595,779.51 205.268,790.519 204.568,798.325C207.47,787.817 211.649,779.685 217.103,773.931C222.557,768.176 228.487,765.299 234.892,765.299C241.297,765.299 246.801,768.351 251.405,774.456C256.009,780.561 258.311,788.367 258.311,797.875C258.311,812.787 254.633,825.347 247.277,835.555C239.921,845.763 230.889,850.867 220.18,850.867C217.278,850.867 214.326,850.416 211.323,849.516C217.728,847.914 223.358,844.186 228.212,838.332C233.066,832.477 236.593,826.122 238.795,819.267C240.997,812.411 242.098,806.031 242.098,800.127C242.098,794.222 241.047,789.293 238.945,785.34C236.844,781.387 233.591,779.41 229.187,779.41C224.784,779.41 220.506,782.012 216.352,787.216C212.199,792.42 208.796,799.276 206.144,807.783C203.492,816.289 202.166,824.571 202.166,832.627C202.166,840.684 203.117,848.015 205.018,854.62C199.714,852.918 195.536,849.316 192.483,843.811C189.431,838.307 187.905,831.777 187.905,824.221C187.905,816.665 189.581,802.128 192.934,780.611C196.286,759.094 197.963,743.381 197.963,733.474C197.963,723.566 197.512,715.159 196.612,708.254C206.519,711.856 211.473,721.514 211.473,737.227ZM435.451,780.086C431.548,784.739 428.621,790.444 426.669,797.199C424.718,803.955 423.742,811.185 423.742,818.891C423.742,826.598 425.043,832.802 427.645,837.506C430.247,842.21 433.725,844.562 438.078,844.562C442.432,844.562 446.71,843.261 450.913,840.659C455.117,838.057 458.67,834.454 461.572,829.85C465.275,830.351 467.126,831.702 467.126,833.903C464.424,838.907 461.046,843.011 456.993,846.213C452.94,849.416 449.162,851.542 445.659,852.593C442.156,853.644 438.604,854.169 435.001,854.169C427.295,854.169 420.789,851.142 415.485,845.087C410.181,839.032 407.529,830.25 407.529,818.741C407.529,804.13 411.482,791.57 419.388,781.061C427.295,770.553 437.803,765.299 450.913,765.299C458.119,765.299 463.573,767.175 467.276,770.928C470.979,774.681 472.831,779.035 472.831,783.989C472.831,788.943 471.455,793.171 468.703,796.674C465.95,800.177 462.423,801.928 458.119,801.928C455.417,801.928 453.115,801.478 451.214,800.577C452.815,798.775 454.191,796.248 455.342,792.996C456.493,789.743 457.068,786.566 457.068,783.463C457.068,776.558 454.216,773.105 448.511,773.105C443.708,773.105 439.354,775.432 435.451,780.086ZM538.733,833.903C534.129,841.409 529.075,846.663 523.571,849.666C518.067,852.668 511.687,854.169 504.431,854.169C497.175,854.169 490.845,850.967 485.441,844.562C480.037,838.157 477.334,829.15 477.334,817.54C477.334,804.33 480.887,792.52 487.993,782.112C491.496,777.108 496.074,773.055 501.729,769.953C507.383,766.85 513.613,765.299 520.419,765.299C535.43,765.299 542.936,772.555 542.936,787.066C542.936,795.773 539.559,802.603 532.803,807.557C526.048,812.511 518.217,814.988 509.31,814.988C503.405,814.988 498.101,814.438 493.397,813.337C493.297,814.338 493.247,815.889 493.247,817.991C493.247,835.705 498.501,844.562 509.009,844.562C518.917,844.562 526.974,839.658 533.179,829.85C536.882,830.351 538.733,831.702 538.733,833.903ZM134.612,851.918C134.012,852.218 132.486,852.643 130.034,853.194C127.582,853.744 125.33,854.019 123.278,854.019C121.227,854.019 120.051,853.269 119.751,851.768C117.949,845.563 115.247,833.428 111.644,815.364C108.041,797.299 104.413,780.911 100.761,766.2C97.108,751.488 93.58,741.73 90.177,736.926C94.38,734.324 97.883,733.023 100.685,733.023C105.89,733.023 109.517,735.976 111.569,741.88C113.621,747.785 116.998,763.898 121.702,790.219C122.002,792.621 123.479,800.152 126.131,812.812C128.783,825.472 130.409,833.453 131.01,836.756C137.615,822.144 144.971,802.654 153.077,778.284C161.183,753.915 165.237,738.077 165.237,730.771C175.044,732.573 179.948,736.276 179.948,741.88C179.948,745.984 177.121,754.665 171.467,767.926C165.812,781.186 159.007,796.449 151.05,813.712C143.094,830.976 137.615,843.711 134.612,851.918ZM288.034,803.129C291.637,790.119 295.965,780.536 301.019,774.381C306.073,768.226 310.777,765.149 315.131,765.149C319.484,765.149 322.762,766.775 324.963,770.028C327.165,773.28 328.266,777.408 328.266,782.412C328.266,787.416 326.965,791.745 324.363,795.398C321.761,799.051 317.958,800.877 312.954,800.877C311.353,800.877 310.102,800.777 309.201,800.577C312.604,795.673 314.305,790.669 314.305,785.565C314.305,781.962 312.854,780.161 309.952,780.161C307.65,780.161 305.198,781.512 302.596,784.214C299.994,786.916 297.492,790.669 295.09,795.473C292.688,800.277 290.686,806.532 289.085,814.238C287.484,821.944 286.683,830.25 286.683,839.157C286.683,840.158 286.933,844.412 287.434,851.918C284.832,852.118 283.33,852.218 282.93,852.218C274.123,852.218 269.72,847.914 269.72,839.308C269.72,837.306 270.77,829.6 272.872,816.189C274.974,802.779 276.025,792.095 276.025,784.139C276.025,776.183 275.174,768.852 273.473,762.146C279.377,764.448 283.506,767.726 285.857,771.979C288.209,776.233 289.385,781.186 289.385,786.841C289.385,792.495 288.935,797.925 288.034,803.129ZM517.566,773.105C511.562,773.105 506.482,776.558 502.329,783.463C498.176,790.369 495.399,798.475 493.998,807.783L498.201,807.783C503.505,807.783 508.109,807.032 512.012,805.531C515.915,804.03 518.917,802.078 521.019,799.676C525.022,795.073 527.024,789.868 527.024,784.064C527.024,780.761 526.248,778.109 524.697,776.107C523.146,774.106 520.769,773.105 517.566,773.105Z" style="fill:rgb(43,105,179);fill-rule:nonzero;"/>
            <path d="M646.519,804.78L646.368,801.027L646.068,797.274C647.87,797.074 649.721,796.974 651.623,796.974C656.226,796.974 659.429,797.95 661.23,799.901C663.032,801.853 663.932,805.181 663.932,809.884C663.932,840.408 658.778,864.227 648.47,881.341C644.867,887.246 640.189,892.049 634.434,895.752C628.679,899.455 622.149,901.307 614.843,901.307C604.936,901.307 597.48,898.63 592.476,893.275C587.472,887.921 584.97,881.966 584.97,875.411C584.97,868.856 586.446,863.702 589.398,859.949C592.351,856.196 596.029,854.32 600.432,854.32C603.234,854.32 605.836,855.17 608.238,856.872C603.935,862.776 601.783,868.631 601.783,874.435C601.783,886.545 606.637,892.6 616.345,892.6C626.052,892.6 633.408,886.895 638.412,875.486C643.416,864.077 646.368,848.165 647.269,827.748C643.666,834.254 639.163,839.183 633.758,842.535C628.354,845.888 622.7,847.564 616.795,847.564C607.388,847.564 599.356,843.661 592.701,835.855C586.046,828.049 582.718,817.19 582.718,803.279C582.718,784.064 587.372,767.451 596.679,753.439C601.283,746.534 607.212,741.055 614.468,737.001C621.724,732.948 630.006,730.922 639.313,730.922C648.62,730.922 655.701,733.449 660.555,738.503C665.409,743.557 667.836,749.661 667.836,756.817C667.836,763.973 665.759,769.577 661.606,773.631C657.452,777.684 652.523,779.71 646.819,779.71C638.512,779.71 632.257,776.808 628.054,771.003C630.756,771.704 633.308,772.054 635.71,772.054C641.415,772.054 645.893,770.353 649.146,766.95C652.398,763.547 654.025,759.619 654.025,755.166C654.025,750.712 652.523,747.009 649.521,744.057C646.519,741.105 642.265,739.629 636.761,739.629C629.455,739.629 622.825,742.981 616.87,749.687C610.915,756.392 606.412,764.498 603.359,774.006C600.307,783.513 598.781,793.446 598.781,803.804C598.781,814.163 601.007,822.294 605.461,828.199C609.915,834.103 615.394,837.056 621.899,837.056C628.404,837.056 634.134,834.129 639.088,828.274C644.042,822.419 646.519,814.588 646.519,804.78ZM943.304,786.616C943.304,791.219 942.328,799.351 940.377,811.01C938.425,822.669 937.449,831.151 937.449,836.455C937.449,841.76 938.1,845.588 939.401,847.939C940.702,850.291 942.904,852.318 946.006,854.019C944.705,854.119 942.854,854.169 940.452,854.169C933.646,854.169 928.818,852.893 925.965,850.341C923.113,847.789 921.687,843.211 921.687,836.605C921.687,832.903 922.688,825.422 924.689,814.163C926.691,802.904 927.692,794.622 927.692,789.318C927.692,782.713 925.69,779.41 921.687,779.41C915.282,779.41 908.652,785.065 901.796,796.374C894.941,807.683 891.513,821.293 891.513,837.206C891.513,843.511 891.813,848.415 892.414,851.918C889.812,852.118 888.26,852.218 887.76,852.218C878.953,852.218 874.55,847.914 874.55,839.308C874.55,837.306 875.6,829.6 877.702,816.189C879.804,802.779 880.855,792.095 880.855,784.139C880.855,776.183 880.004,768.852 878.303,762.146C884.207,764.448 888.335,767.726 890.687,771.979C893.039,776.233 894.215,781.086 894.215,786.541C894.215,791.995 893.615,798.325 892.414,805.531C895.716,794.222 900.895,784.689 907.951,776.933C915.007,769.177 921.587,765.299 927.692,765.299C938.1,765.299 943.304,772.405 943.304,786.616ZM863.591,833.903C858.987,841.409 853.933,846.663 848.429,849.666C842.924,852.668 836.544,854.169 829.289,854.169C822.033,854.169 815.703,850.967 810.299,844.562C804.894,838.157 802.192,829.15 802.192,817.54C802.192,804.33 805.745,792.52 812.851,782.112C816.353,777.108 820.932,773.055 826.586,769.953C832.241,766.85 838.471,765.299 845.276,765.299C860.288,765.299 867.794,772.555 867.794,787.066C867.794,795.773 864.417,802.603 857.661,807.557C850.906,812.511 843.075,814.988 834.168,814.988C828.263,814.988 822.959,814.438 818.255,813.337C818.155,814.338 818.105,815.889 818.105,817.991C818.105,835.705 823.359,844.562 833.867,844.562C843.775,844.562 851.832,839.658 858.036,829.85C861.739,830.351 863.591,831.702 863.591,833.903ZM794.236,833.903C789.632,841.409 784.578,846.663 779.074,849.666C773.569,852.668 767.189,854.169 759.934,854.169C752.678,854.169 746.348,850.967 740.944,844.562C735.539,838.157 732.837,829.15 732.837,817.54C732.837,804.33 736.39,792.52 743.496,782.112C746.998,777.108 751.577,773.055 757.231,769.953C762.886,766.85 769.116,765.299 775.921,765.299C790.933,765.299 798.439,772.555 798.439,787.066C798.439,795.773 795.061,802.603 788.306,807.557C781.551,812.511 773.72,814.988 764.812,814.988C758.908,814.988 753.604,814.438 748.9,813.337C748.8,814.338 748.75,815.889 748.75,817.991C748.75,835.705 754.004,844.562 764.512,844.562C774.42,844.562 782.476,839.658 788.681,829.85C792.384,830.351 794.236,831.702 794.236,833.903ZM696.658,803.129C700.261,790.119 704.59,780.536 709.644,774.381C714.698,768.226 719.401,765.149 723.755,765.149C728.108,765.149 731.386,766.775 733.588,770.028C735.789,773.28 736.89,777.408 736.89,782.412C736.89,787.416 735.589,791.745 732.987,795.398C730.385,799.051 726.582,800.877 721.578,800.877C719.977,800.877 718.726,800.777 717.825,800.577C721.228,795.673 722.929,790.669 722.929,785.565C722.929,781.962 721.478,780.161 718.576,780.161C716.274,780.161 713.822,781.512 711.22,784.214C708.618,786.916 706.116,790.669 703.714,795.473C701.312,800.277 699.311,806.532 697.709,814.238C696.108,821.944 695.307,830.25 695.307,839.157C695.307,840.158 695.558,844.412 696.058,851.918C693.456,852.118 691.955,852.218 691.554,852.218C682.747,852.218 678.344,847.914 678.344,839.308C678.344,837.306 679.395,829.6 681.496,816.189C683.598,802.779 684.649,792.095 684.649,784.139C684.649,776.183 683.798,768.852 682.097,762.146C688.002,764.448 692.13,767.726 694.482,771.979C696.834,776.233 698.009,781.186 698.009,786.841C698.009,792.495 697.559,797.925 696.658,803.129ZM842.424,773.105C836.419,773.105 831.34,776.558 827.187,783.463C823.034,790.369 820.256,798.475 818.855,807.783L823.059,807.783C828.363,807.783 832.967,807.032 836.87,805.531C840.773,804.03 843.775,802.078 845.877,799.676C849.88,795.073 851.882,789.868 851.882,784.064C851.882,780.761 851.106,778.109 849.555,776.107C848.003,774.106 845.627,773.105 842.424,773.105ZM773.069,773.105C767.064,773.105 761.985,776.558 757.832,783.463C753.679,790.369 750.901,798.475 749.5,807.783L753.704,807.783C759.008,807.783 763.612,807.032 767.515,805.531C771.418,804.03 774.42,802.078 776.522,799.676C780.525,795.073 782.527,789.868 782.527,784.064C782.527,780.761 781.751,778.109 780.2,776.107C778.648,774.106 776.272,773.105 773.069,773.105Z" style="fill:rgb(70,166,72);fill-rule:nonzero;"/>
        </g>
    </g>
</svg>
